<?xml version="1.0" encoding="UTF-8" standalone="no"?>
<!-- Created with Inkscape (http://www.inkscape.org/) -->

<svg
   xmlns:dc="http://purl.org/dc/elements/1.1/"
   xmlns:cc="http://creativecommons.org/ns#"
   xmlns:rdf="http://www.w3.org/1999/02/22-rdf-syntax-ns#"
   xmlns:svg="http://www.w3.org/2000/svg"
   xmlns="http://www.w3.org/2000/svg"
   xmlns:sodipodi="http://sodipodi.sourceforge.net/DTD/sodipodi-0.dtd"
   xmlns:inkscape="http://www.inkscape.org/namespaces/inkscape"
   version="1.2"
   width="723.87378"
   height="89.519997"
   id="svg4051"
   inkscape:version="0.48.4 r9939"
   sodipodi:docname="dessin.svg">
  <sodipodi:namedview
     pagecolor="#ffffff"
     bordercolor="#666666"
     borderopacity="1"
     objecttolerance="10"
     gridtolerance="10"
     guidetolerance="10"
     inkscape:pageopacity="0"
     inkscape:pageshadow="2"
     inkscape:window-width="1366"
     inkscape:window-height="746"
     id="namedview22"
     showgrid="false"
     inkscape:zoom="0.52771631"
     inkscape:cx="365.7268"
     inkscape:cy="44.759998"
     inkscape:window-x="1680"
     inkscape:window-y="0"
     inkscape:window-maximized="1"
     inkscape:current-layer="svg4051" />
  <defs
     id="defs4053" />
  <metadata
     id="metadata4056">
    <rdf:RDF>
      <cc:Work
         rdf:about="">
        <dc:format>image/svg+xml</dc:format>
        <dc:type
           rdf:resource="http://purl.org/dc/dcmitype/StillImage" />
        <dc:title></dc:title>
      </cc:Work>
    </rdf:RDF>
  </metadata>
  <g
     transform="translate(128.75507,-421.83535)"
     id="layer1">
    <g
       style="font-size:120px;font-style:normal;font-variant:normal;font-weight:normal;font-stretch:normal;line-height:125%;letter-spacing:0px;word-spacing:0px;fill:#000000;fill-opacity:1;stroke:none;font-family:Fredoka One;-inkscape-font-specification:Fredoka One"
       id="text4059">
      <path
         d="m -80.875069,421.83535 c 3.119947,9e-5 5.399945,0.28009 6.84,0.84 1.519942,0.48009 2.599941,1.32008 3.24,2.52 0.879939,1.84008 1.319939,4.32008 1.32,7.44 l 0,46.44 c -6.1e-5,8.40002 -3.040058,15.84001 -9.12,22.32 -6.080046,6.4 -13.840038,9.6 -23.280001,9.6 -5.28002,0 -9.96002,-1.16 -14.04,-3.48 -3.68001,-2 -6.24001,-3.79999 -7.68,-5.4 l -0.96,-0.96 c -2.8,-2.95999 -4.2,-5.47999 -4.2,-7.56 0,-2.15998 1.4,-4.67998 4.2,-7.56 2.79999,-2.87997 5.27999,-4.31997 7.44,-4.32 2.15999,3e-5 4.55998,1.32003 7.2,3.96 2.63998,2.64002 5.47997,3.96002 8.52,3.96 3.119969,2e-5 5.679966,-1.03998 7.680001,-3.12 1.999961,-2.07998 2.99996,-4.83997 3,-8.28 l 0,-44.88 c -4e-5,-4.79992 0.799959,-7.87992 2.4,-9.24 1.839956,-1.51991 4.319953,-2.27991 7.44,-2.28"
         style="fill:#33d685;fill-opacity:1"
         id="path3000" />
      <path
         d="m 1.064306,470.67535 c -6.57e-5,4.88003 -1.24006449,8.52003 -3.72,10.92 -2.4000596,2.32003 -5.0800569,3.48002 -8.04,3.48 l -28.44,0 c -2.6e-5,2.24002 1.319973,4.12002 3.96,5.64 2.639968,1.52002 5.279965,2.28002 7.92,2.28 4.639958,2e-5 8.279954,-0.47998 10.92,-1.44 l 1.32,-0.48 c 1.919948,-0.87998 3.519947,-1.31998 4.8,-1.32 2.559943,2e-5 4.7599408,1.80002 6.6,5.4 1.0399379,2.16001 1.5599374,4.00001 1.56,5.52 -6.26e-5,7.12 -8.520054,10.68 -25.56,10.68 -5.920031,0 -11.200026,-1 -15.84,-3 -4.560017,-2.08 -8.120013,-4.79999 -10.68,-8.16 -5.040005,-6.47998 -7.560003,-13.71998 -7.56,-21.72 -3e-6,-10.07996 3.239994,-18.11995 9.72,-24.12 6.559981,-6.07994 14.719973,-9.11994 24.48,-9.12 11.119952,6e-5 19.2799436,3.92006 24.48,11.76 2.71993563,4.16005 4.0799343,8.72004 4.08,13.68 m -25.32,3.48 c 3.039957,3e-5 4.559955,-1.27996 4.56,-3.84 -4.5e-5,-1.83996 -0.720044,-3.31996 -2.16,-4.44 -1.360041,-1.11996 -3.360039,-1.67996 -6,-1.68 -2.560034,4e-5 -5.120032,1.08004 -7.68,3.24 -2.560027,2.08004 -3.840025,4.32004 -3.84,6.72 l 15.12,0"
         style="fill:#33d685;fill-opacity:1"
         id="path3002" />
      <path
         d="m 49.816181,453.27535 c 0.479954,-4.47994 3.639951,-6.71994 9.48,-6.72 3.119942,6e-5 5.439939,0.24006 6.96,0.72 1.519936,0.48006 2.559935,1.32006 3.12,2.52 0.639934,1.20006 0.999934,2.28006 1.08,3.24 0.159933,0.88006 0.239933,2.24005 0.24,4.08 l 0,42 c -6.7e-5,1.84001 -0.08007,3.24001 -0.24,4.2 -0.08007,0.88 -0.400066,1.92 -0.96,3.12 -1.120064,2.08 -3.880062,3.12 -8.28,3.12 -4.320053,0 -7.24005,-0.52 -8.76,-1.56 -1.440047,-1.12 -2.280046,-2.72 -2.52,-4.8 -2.960043,4.24 -7.920038,6.36 -14.88,6.36 -6.880024,0 -13.280018,-3.16 -19.2,-9.48 -5.9200059,-6.31998 -8.880003,-13.63998 -8.88,-21.96 -3e-6,-8.39996 2.9599941,-15.71995 8.88,-21.96 5.999982,-6.31994 12.559976,-9.47994 19.68,-9.48 2.719966,6e-5 5.199963,0.48006 7.44,1.44 2.239959,0.96006 3.799957,1.88006 4.68,2.76 0.879955,0.80006 1.599955,1.60006 2.16,2.4 m -21.84,24.96 c -2.4e-5,2.64003 1.039975,5.04003 3.12,7.2 2.079971,2.08002 4.599968,3.12002 7.56,3.12 2.959962,2e-5 5.39996,-1.07998 7.32,-3.24 1.999956,-2.15997 2.999955,-4.51997 3,-7.08 -4.5e-5,-2.63997 -0.960044,-5.07996 -2.88,-7.32 -1.84004,-2.23996 -4.360038,-3.35996 -7.56,-3.36 -3.120031,4e-5 -5.680029,1.12004 -7.68,3.36 -1.920025,2.24004 -2.880024,4.68003 -2.88,7.32"
         style="fill:#33d685;fill-opacity:1"
         id="path3004" />
      <path
         d="m 115.42056,446.55535 c 7.99995,6e-5 14.63994,3.08006 19.92,9.24 5.35993,6.08005 8.03993,13.52004 8.04,22.32 l 0,21.12 c -7e-5,1.84001 -0.0801,3.24001 -0.24,4.2 -0.0801,0.88 -0.40007,1.88 -0.96,3 -1.12007,2.16 -4.24007,3.24 -9.36,3.24 -5.68006,0 -8.96005,-1.48 -9.84,-4.44 -0.48005,-1.35999 -0.72005,-3.39999 -0.72,-6.12 l 0,-21.12 c -5e-5,-3.27997 -0.96005,-5.83996 -2.88,-7.68 -1.84005,-1.83996 -4.36004,-2.75996 -7.56,-2.76 -3.12004,4e-5 -5.68003,0.96004 -7.68,2.88 -1.92003,1.92004 -2.88003,4.44003 -2.88,7.56 l 0,21.24 c -3e-5,1.84001 -0.08,3.24001 -0.24,4.2 -0.08,0.88 -0.44003,1.88 -1.080004,3 -1.040023,2.16 -4.12002,3.24 -9.24,3.24 -5.04001,0 -8.120007,-1.08 -9.24,-3.24 -0.560005,-1.2 -0.920005,-2.24 -1.08,-3.12 -0.08,-0.95999 -0.120005,-2.35999 -0.12,-4.2 l 0,-42.48 c -5e-6,-1.75995 0.04,-3.07994 0.12,-3.96 0.159995,-0.95994 0.559995,-1.99994 1.2,-3.12 1.119993,-1.99994 4.19999,-2.99994 9.24,-3 4.87998,6e-5 7.879977,0.92006 9,2.76 0.799974,1.36006 1.199974,3.00006 1.200004,4.92 0.31997,-0.55994 1.03997,-1.35994 2.16,-2.4 1.11997,-1.03994 2.19997,-1.87994 3.24,-2.52 2.71996,-1.83994 5.71996,-2.75994 9,-2.76"
         style="fill:#33d685;fill-opacity:1"
         id="path3006" />
      <path
         d="m 276.86556,425.19535 c 0.6399,1.20008 0.9999,2.28008 1.08,3.24 0.1599,0.96008 0.2399,2.36008 0.24,4.2 l 0,66.6 c -1e-4,5.52 -1.5201,8.76 -4.56,9.72 -1.5201,0.48 -3.4401,0.72 -5.76,0.72 -2.32009,0 -4.16009,-0.2 -5.52,-0.6 -1.36009,-0.4 -2.40009,-0.88 -3.12,-1.44 -0.72008,-0.56 -1.28008,-1.36 -1.68,-2.4 -0.40008,-1.35999 -0.60008,-3.43999 -0.6,-6.24 l 0,-40.2 c -2.00008,2.48005 -4.92008,6.44004 -8.76,11.88 -3.84007,5.36003 -6.28007,8.72003 -7.32,10.08 -1.04007,1.36003 -1.76006,2.32003 -2.16,2.88 -0.40006,0.48002 -1.40006,1.20002 -3,2.16 -1.52006,0.88002 -3.20006,1.32002 -5.04,1.32 -1.76005,2e-5 -3.40005,-0.39998 -4.92,-1.2 -1.44005,-0.87998 -2.48005,-1.71998 -3.12,-2.52 l -0.96,-1.32 c -1.60005,-1.99997 -4.76004,-6.23997 -9.48,-12.72 -4.72003,-6.55995 -7.28003,-10.07995 -7.68,-10.56 l 0,40.44 c -3e-5,1.84001 -0.08,3.24001 -0.24,4.2 -0.08,0.88 -0.44003,1.88 -1.08,3 -1.20003,2.16 -4.32002,3.24 -9.36,3.24 -4.88001,0 -7.92001,-1.08 -9.12,-3.24 -0.64001,-1.12 -1.04001,-2.16 -1.2,-3.12 -0.08,-0.95999 -0.12001,-2.39999 -0.12,-4.32 l 0,-66.6 c -1e-5,-1.83992 0.04,-3.19992 0.12,-4.08 0.15999,-0.95992 0.55999,-2.03992 1.2,-3.24 1.19999,-2.07991 4.31999,-3.11991 9.36,-3.12 2.15998,9e-5 3.99998,0.28009 5.52,0.84 1.59997,0.48009 2.63997,1.00009 3.12,1.56 l 0.72,0.72 27.24,35.76 c 13.59993,-17.99993 22.67992,-29.87992 27.24,-35.64 1.35992,-2.15991 4.55991,-3.23991 9.6,-3.24 5.1199,9e-5 8.2399,1.08009 9.36,3.24"
         style="fill:#9a9da2;fill-opacity:1"
         id="path3008" />
      <path
         d="m 328.72243,453.27535 c 0.47995,-4.47994 3.63995,-6.71994 9.48,-6.72 3.11994,6e-5 5.43994,0.24006 6.96,0.72 1.51994,0.48006 2.55994,1.32006 3.12,2.52 0.63993,1.20006 0.99993,2.28006 1.08,3.24 0.15993,0.88006 0.23993,2.24005 0.24,4.08 l 0,42 c -7e-5,1.84001 -0.0801,3.24001 -0.24,4.2 -0.0801,0.88 -0.40007,1.92 -0.96,3.12 -1.12006,2.08 -3.88006,3.12 -8.28,3.12 -4.32005,0 -7.24005,-0.52 -8.76,-1.56 -1.44005,-1.12 -2.28005,-2.72 -2.52,-4.8 -2.96004,4.24 -7.92004,6.36 -14.88,6.36 -6.88002,0 -13.28002,-3.16 -19.2,-9.48 -5.92,-6.31998 -8.88,-13.63998 -8.88,-21.96 0,-8.39996 2.96,-15.71995 8.88,-21.96 5.99998,-6.31994 12.55998,-9.47994 19.68,-9.48 2.71997,6e-5 5.19996,0.48006 7.44,1.44 2.23996,0.96006 3.79996,1.88006 4.68,2.76 0.87996,0.80006 1.59996,1.60006 2.16,2.4 m -21.84,24.96 c -2e-5,2.64003 1.03998,5.04003 3.12,7.2 2.07997,2.08002 4.59997,3.12002 7.56,3.12 2.95996,2e-5 5.39996,-1.07998 7.32,-3.24 1.99996,-2.15997 2.99996,-4.51997 3,-7.08 -4e-5,-2.63997 -0.96004,-5.07996 -2.88,-7.32 -1.84004,-2.23996 -4.36004,-3.35996 -7.56,-3.36 -3.12003,4e-5 -5.68003,1.12004 -7.68,3.36 -1.92002,2.24004 -2.88002,4.68003 -2.88,7.32"
         style="fill:#9a9da2;fill-opacity:1"
         id="path3010" />
      <path
         d="m 359.64681,504.15535 c -1.52001,-0.95999 -2.28001,-2.47999 -2.28,-4.56 -10e-6,-2.07999 1.51999,-5.23999 4.56,-9.48 0.87999,-1.35998 2.27999,-2.03998 4.2,-2.04 1.99998,2e-5 4.67998,1.00002 8.04,3 3.35997,1.92002 6.39997,2.88001 9.12,2.88 4.87996,10e-6 7.31996,-0.95998 7.32,-2.88 -4e-5,-1.51998 -2.68004,-2.63998 -8.04,-3.36 -5.04003,-0.71998 -10.04002,-2.59998 -15,-5.64 -2.32001,-1.43997 -4.24001,-3.67997 -5.76,-6.72 -1.52001,-3.11996 -2.28001,-6.79996 -2.28,-11.04 -1e-5,-12.63994 8.67998,-18.95994 26.04,-18.96 5.67996,6e-5 11.51995,1.36006 17.52,4.08 2.79994,1.28006 4.19994,2.88006 4.2,4.8 -6e-5,1.92005 -0.88006,4.28005 -2.64,7.08 -1.76005,2.80004 -3.56005,4.20004 -5.4,4.2 -0.96005,4e-5 -2.76005,-0.59996 -5.4,-1.8 -2.56004,-1.19995 -5.36004,-1.79995 -8.4,-1.8 -4.72003,5e-5 -7.08003,0.88005 -7.08,2.64 -3e-5,2.40004 2.71997,3.96004 8.16,4.68 5.27996,0.56004 10.39995,2.08004 15.36,4.56 2.31995,1.12003 4.23994,3.08003 5.76,5.88 1.59994,2.72003 2.39994,6.16002 2.4,10.32 -6e-5,4.16001 -0.80006,7.72001 -2.4,10.68 -1.52006,2.88001 -3.68005,5.04 -6.48,6.48 -5.12005,2.48 -11.56004,3.72 -19.32,3.72 -7.68002,0 -15.08002,-2.24 -22.2,-6.72"
         style="fill:#9a9da2;fill-opacity:1"
         id="path3012" />
      <path
         d="m 418.24056,504.15535 c -1.52001,-0.95999 -2.28001,-2.47999 -2.28,-4.56 -10e-6,-2.07999 1.51999,-5.23999 4.56,-9.48 0.87999,-1.35998 2.27999,-2.03998 4.2,-2.04 1.99998,2e-5 4.67998,1.00002 8.04,3 3.35997,1.92002 6.39997,2.88001 9.12,2.88 4.87996,10e-6 7.31996,-0.95998 7.32,-2.88 -4e-5,-1.51998 -2.68004,-2.63998 -8.04,-3.36 -5.04003,-0.71998 -10.04002,-2.59998 -15,-5.64 -2.32001,-1.43997 -4.24001,-3.67997 -5.76,-6.72 -1.52001,-3.11996 -2.28001,-6.79996 -2.28,-11.04 -1e-5,-12.63994 8.67998,-18.95994 26.04,-18.96 5.67996,6e-5 11.51995,1.36006 17.52,4.08 2.79994,1.28006 4.19994,2.88006 4.2,4.8 -6e-5,1.92005 -0.88006,4.28005 -2.64,7.08 -1.76005,2.80004 -3.56005,4.20004 -5.4,4.2 -0.96005,4e-5 -2.76005,-0.59996 -5.4,-1.8 -2.56004,-1.19995 -5.36004,-1.79995 -8.4,-1.8 -4.72003,5e-5 -7.08003,0.88005 -7.08,2.64 -3e-5,2.40004 2.71997,3.96004 8.16,4.68 5.27996,0.56004 10.39995,2.08004 15.36,4.56 2.31995,1.12003 4.23994,3.08003 5.76,5.88 1.59994,2.72003 2.39994,6.16002 2.4,10.32 -6e-5,4.16001 -0.80006,7.72001 -2.4,10.68 -1.52006,2.88001 -3.68005,5.04 -6.48,6.48 -5.12005,2.48 -11.56004,3.72 -19.32,3.72 -7.68002,0 -15.08002,-2.24 -22.2,-6.72"
         style="fill:#9a9da2;fill-opacity:1"
         id="path3014" />
      <path
         d="m 517.39431,453.27535 c 0.47995,-4.47994 3.63995,-6.71994 9.48,-6.72 3.11994,6e-5 5.43994,0.24006 6.96,0.72 1.51993,0.48006 2.55993,1.32006 3.12,2.52 0.63993,1.20006 0.99993,2.28006 1.08,3.24 0.15993,0.88006 0.23993,2.24005 0.24,4.08 l 0,42 c -7e-5,1.84001 -0.0801,3.24001 -0.24,4.2 -0.0801,0.88 -0.40007,1.92 -0.96,3.12 -1.12007,2.08 -3.88007,3.12 -8.28,3.12 -4.32006,0 -7.24005,-0.52 -8.76,-1.56 -1.44005,-1.12 -2.28005,-2.72 -2.52,-4.8 -2.96005,4.24 -7.92004,6.36 -14.88,6.36 -6.88003,0 -13.28002,-3.16 -19.2,-9.48 -5.92001,-6.31998 -8.88001,-13.63998 -8.88,-21.96 -10e-6,-8.39996 2.95999,-15.71995 8.88,-21.96 5.99998,-6.31994 12.55997,-9.47994 19.68,-9.48 2.71996,6e-5 5.19996,0.48006 7.44,1.44 2.23995,0.96006 3.79995,1.88006 4.68,2.76 0.87995,0.80006 1.59995,1.60006 2.16,2.4 m -21.84,24.96 c -3e-5,2.64003 1.03997,5.04003 3.12,7.2 2.07997,2.08002 4.59996,3.12002 7.56,3.12 2.95996,2e-5 5.39996,-1.07998 7.32,-3.24 1.99995,-2.15997 2.99995,-4.51997 3,-7.08 -5e-5,-2.63997 -0.96005,-5.07996 -2.88,-7.32 -1.84004,-2.23996 -4.36004,-3.35996 -7.56,-3.36 -3.12004,4e-5 -5.68003,1.12004 -7.68,3.36 -1.92003,2.24004 -2.88003,4.68003 -2.88,7.32"
         style="fill:#9a9da2;fill-opacity:1"
         id="path3016" />
      <path
         d="m 584.55868,467.79535 -7.8,-0.48 0,16.56 c -3e-5,2.16002 0.31997,3.72002 0.96,4.68 0.71997,0.96002 1.99996,1.44002 3.84,1.44 1.91996,2e-5 3.35996,0.08 4.32,0.24 1.03996,0.08 2.11996,0.44002 3.24,1.08 1.83995,1.04002 2.75995,3.72001 2.76,8.04 -5e-5,5.04 -1.12005,8.12 -3.36,9.24 -1.20004,0.56 -2.28004,0.92 -3.24,1.08 -0.88004,0.08 -2.20004,0.12 -3.96,0.12 -8.32003,0 -14.64002,-1.88 -18.96,-5.64 -4.32001,-3.75999 -6.48001,-10.11999 -6.48,-19.08 l 0,-17.76 c -1.52001,0.24004 -3.16001,0.36004 -4.92,0.36 -1.76001,4e-5 -3.24,-0.67996 -4.44,-2.04 -1.12,-1.35996 -1.68,-3.67995 -1.68,-6.96 0,-3.27995 0.2,-5.63994 0.6,-7.08 0.4,-1.51994 0.96,-2.59994 1.68,-3.24 1.28,-1.03994 2.87999,-1.55994 4.8,-1.56 l 3.96,0.48 0,-12.36 c -10e-6,-1.83992 0.04,-3.19992 0.12,-4.08 0.15999,-0.87992 0.55999,-1.83992 1.2,-2.88 1.03999,-1.99992 4.11998,-2.99992 9.24,-3 5.43997,8e-5 8.67997,1.48008 9.72,4.44 0.39997,1.28008 0.59997,3.32008 0.6,6.12 l 0,11.76 c 3.51996,-0.31994 6.15996,-0.47994 7.92,-0.48 1.83996,6e-5 3.19996,0.0801 4.08,0.24 0.95995,0.0801 2.03995,0.44006 3.24,1.08 2.07995,1.04006 3.11995,4.12006 3.12,9.24 -5e-5,5.04005 -1.08005,8.12004 -3.24,9.24 -1.20005,0.56004 -2.28005,0.92004 -3.24,1.08 -0.88004,0.08 -2.24004,0.12004 -4.08,0.12"
         style="fill:#9a9da2;fill-opacity:1"
         id="path3018" />
    </g>
    <g
       style="font-size:12px;font-style:normal;font-variant:normal;font-weight:normal;font-stretch:normal;line-height:125%;letter-spacing:0px;word-spacing:0px;fill:#000000;fill-opacity:1;stroke:none;font-family:Fredoka One;-inkscape-font-specification:Fredoka One"
       id="flowRoot4082" />
    <g
       style="font-size:12px;font-style:normal;font-variant:normal;font-weight:normal;font-stretch:normal;line-height:125%;letter-spacing:0px;word-spacing:0px;fill:#000000;fill-opacity:1;stroke:none;font-family:Fredoka One;-inkscape-font-specification:Fredoka One"
       id="flowRoot4090" />
    <g
       style="font-size:12px;font-style:normal;font-variant:normal;font-weight:normal;font-stretch:normal;line-height:125%;letter-spacing:0px;word-spacing:0px;fill:#000000;fill-opacity:1;stroke:none;font-family:Fredoka One;-inkscape-font-specification:Fredoka One"
       id="flowRoot4098" />
  </g>
</svg>
